<?xml version="1.0" standalone="no"?>
<!DOCTYPE svg PUBLIC "-//W3C//DTD SVG 20010904//EN"
 "http://www.w3.org/TR/2001/REC-SVG-20010904/DTD/svg10.dtd">
<svg version="1.0" xmlns="http://www.w3.org/2000/svg"
 width="700.000000pt" height="700.000000pt" viewBox="0 0 700.000000 700.000000"
 preserveAspectRatio="xMidYMid meet">
<metadata>
Created by potrace 1.11, written by Peter Selinger 2001-2013
</metadata>
<g transform="translate(0.000000,700.000000) scale(0.100000,-0.100000)"
fill="#000000" stroke="none">
<path d="M817 6889 c-73 -12 -136 -61 -173 -137 -18 -36 -19 -137 -20 -3246
l-1 -3209 25 -48 c28 -57 91 -115 142 -130 23 -7 276 -9 740 -7 l705 3 46 27
c42 25 107 103 110 132 1 6 3 22 5 36 2 14 4 549 4 1189 1 951 4 1161 14 1150
7 -8 102 -129 211 -269 109 -140 234 -300 277 -355 180 -231 357 -457 408
-525 30 -39 60 -77 65 -83 12 -13 122 -155 205 -262 77 -100 418 -537 433
-555 7 -8 50 -64 97 -125 46 -60 87 -112 90 -115 3 -3 22 -28 43 -56 64 -89
148 -149 246 -178 46 -14 161 -16 882 -16 907 0 868 -3 932 58 84 79 85 208 4
295 -7 6 -53 66 -103 132 -50 66 -243 320 -428 565 -185 245 -343 452 -349
460 -7 9 -33 42 -57 75 -25 33 -50 66 -57 75 -7 8 -87 114 -179 235 -176 232
-271 358 -511 675 -82 107 -234 308 -338 445 -104 138 -212 280 -240 316 -27
36 -59 78 -70 93 -11 16 -35 46 -52 68 -18 22 -33 41 -33 42 0 4 210 281 247
326 7 8 315 407 684 885 369 479 714 926 768 995 53 69 202 261 331 428 129
166 241 315 249 330 8 15 15 51 16 81 2 45 -3 61 -29 99 -17 26 -51 60 -76 77
l-45 30 -790 -1 c-434 0 -815 -3 -845 -7 -62 -9 -148 -45 -191 -82 -17 -13
-66 -73 -110 -131 -44 -58 -108 -141 -142 -183 -35 -42 -121 -150 -192 -241
-72 -91 -137 -174 -146 -185 -34 -41 -146 -183 -214 -270 -38 -50 -75 -97 -82
-105 -7 -8 -54 -67 -104 -130 -50 -63 -101 -128 -114 -145 -14 -16 -53 -66
-87 -110 -34 -44 -65 -82 -68 -85 -3 -3 -21 -25 -40 -50 -19 -25 -40 -52 -47
-60 -23 -28 -188 -238 -248 -315 -33 -43 -68 -87 -78 -99 -10 -11 -42 -51 -70
-88 -29 -38 -54 -68 -57 -68 -3 0 -5 478 -6 1063 0 584 -3 1078 -6 1097 -12
72 -59 135 -128 170 l-45 24 -685 1 c-377 0 -702 -2 -723 -6z"/>
</g>
</svg>
