<?xml version="1.0" encoding="utf-8"?>
<!-- Generator: Adobe Illustrator 23.0.1, SVG Export Plug-In . SVG Version: 6.00 Build 0)  -->
<svg version="1.1" id="Calque_1" xmlns="http://www.w3.org/2000/svg" xmlns:xlink="http://www.w3.org/1999/xlink" x="0px" y="0px"
	 viewBox="0 0 200 19.1" style="enable-background:new 0 0 200 19.1;" xml:space="preserve">
<style type="text/css">
	.st0{fill:#FDA800;}
	.st1{enable-background:new    ;}
</style>
<path class="st0" d="M51.3,14.3l-0.8-9.2L51.4,5c-0.4-1.2-1-2.2-1.9-3c-1.5-1.3-3.4-1.9-5.8-1.9c-2.4,0-4.4,0.7-5.8,1.9
	c-1.5,1.2-2.2,3-2.3,5.3c0,0.5,0,1.3,0,2.3s0,1.7,0,2.2c0.1,2.3,0.9,4.1,2.3,5.3c1.4,1.2,3.4,1.8,5.8,1.8c2.4,0,4.4-0.6,5.8-1.8
	c0.9-0.7,1.5-1.7,1.9-2.9L51.3,14.3z M46.8,11.7c-0.1,1.1-0.4,2-0.9,2.5c-0.6,0.6-1.3,0.8-2.2,0.8s-1.7-0.3-2.2-0.8
	c-0.6-0.5-0.9-1.4-0.9-2.5c0-0.5,0-1.3,0-2.2s0-1.6,0-2.1c0.1-1.1,0.4-2,0.9-2.5c0.6-0.5,1.3-0.8,2.2-0.8s1.6,0.3,2.2,0.8
	c0.6,0.5,0.9,1.4,0.9,2.5c0.1,1,0.1,1.6,0.1,2.1S46.8,10.7,46.8,11.7z"/>
<g class="st1">
	<path d="M100.2,18.5c-0.1-0.1-0.2-0.3-0.2-0.5V1.1c0-0.2,0.1-0.4,0.2-0.5s0.3-0.2,0.5-0.2h3.5c0.2,0,0.3,0.1,0.5,0.2
		c0.1,0.1,0.2,0.3,0.2,0.5v5.7l4.6-5.8c0.2-0.3,0.5-0.5,1-0.5h4c0.1,0,0.3,0.1,0.4,0.2s0.2,0.2,0.2,0.4c0,0.1,0,0.2-0.1,0.3
		l-6.1,7.9l6.6,8.6c0.1,0.1,0.1,0.2,0.1,0.3s-0.1,0.3-0.2,0.4s-0.2,0.2-0.4,0.2h-4.1c-0.3,0-0.5-0.1-0.7-0.2s-0.3-0.2-0.4-0.4
		l-4.9-6.4V18c0,0.2-0.1,0.3-0.2,0.5c-0.1,0.1-0.3,0.2-0.5,0.2h-3.5C100.5,18.7,100.4,18.6,100.2,18.5z"/>
	<path d="M117.6,18.5c-0.1-0.1-0.2-0.3-0.2-0.5V1.1c0-0.2,0.1-0.4,0.2-0.5s0.3-0.2,0.5-0.2h2.9c0.4,0,0.7,0.2,0.9,0.5l6.1,9.7V1.1
		c0-0.2,0.1-0.4,0.2-0.5c0.1-0.1,0.3-0.2,0.5-0.2h3.3c0.2,0,0.3,0.1,0.5,0.2c0.1,0.1,0.2,0.3,0.2,0.5V18c0,0.2-0.1,0.3-0.2,0.5
		c-0.1,0.1-0.3,0.2-0.5,0.2h-2.9c-0.4,0-0.7-0.2-0.9-0.5l-6.1-9.3V18c0,0.2-0.1,0.3-0.2,0.5c-0.1,0.1-0.3,0.2-0.5,0.2h-3.3
		C117.9,18.7,117.7,18.6,117.6,18.5z"/>
	<path d="M137.9,17.1c-1.4-1.2-2.2-3-2.3-5.3c0-0.5,0-1.2,0-2.2s0-1.8,0-2.3c0.1-2.3,0.8-4.1,2.3-5.3c1.4-1.2,3.4-1.9,5.8-1.9
		c2.4,0,4.3,0.6,5.8,1.9c1.4,1.2,2.2,3,2.3,5.3c0,1,0.1,1.8,0.1,2.3s0,1.3-0.1,2.2c-0.1,2.3-0.8,4.1-2.3,5.3
		c-1.4,1.2-3.4,1.8-5.8,1.8C141.3,18.9,139.3,18.3,137.9,17.1z M145.9,14.2c0.5-0.5,0.8-1.4,0.9-2.5c0-1,0.1-1.7,0.1-2.2
		s0-1.1-0.1-2.1c0-1.1-0.3-2-0.9-2.5c-0.5-0.5-1.3-0.8-2.2-0.8s-1.6,0.3-2.2,0.8c-0.5,0.5-0.8,1.4-0.9,2.5c0,0.5,0,1.2,0,2.1
		s0,1.7,0,2.2c0,1.1,0.3,2,0.9,2.5c0.5,0.5,1.3,0.8,2.2,0.8C144.7,15,145.4,14.8,145.9,14.2z"/>
	<path d="M149,17.1c-1.4-1.2-2.2-3-2.3-5.3c0-0.5,0-1.2,0-2.2s0-1.8,0-2.3c0.1-2.3,0.8-4.1,2.3-5.3c1.4-1.2,3.4-1.9,5.8-1.9
		c2.4,0,4.3,0.6,5.8,1.9c1.4,1.2,2.2,3,2.3,5.3c0,1,0.1,1.8,0.1,2.3s0,1.3-0.1,2.2c-0.1,2.3-0.8,4.1-2.3,5.3
		c-1.4,1.2-3.4,1.8-5.8,1.8S150.5,18.3,149,17.1z M157,14.2c0.5-0.5,0.8-1.4,0.9-2.5c0-1,0.1-1.7,0.1-2.2s0-1.1-0.1-2.1
		c0-1.1-0.3-2-0.9-2.5c-0.5-0.5-1.3-0.8-2.2-0.8s-1.6,0.3-2.2,0.8c-0.5,0.5-0.8,1.4-0.9,2.5c0,0.5,0,1.2,0,2.1s0,1.7,0,2.2
		c0,1.1,0.3,2,0.9,2.5c0.5,0.5,1.3,0.8,2.2,0.8C155.8,15,156.5,14.8,157,14.2z"/>
	<path d="M166.6,18.5c-0.1-0.1-0.2-0.3-0.2-0.5V1.1c0-0.2,0.1-0.4,0.2-0.5c0.1-0.1,0.3-0.2,0.5-0.2h6.8c2.6,0,4.6,0.6,6,1.8
		s2.2,3,2.2,5.3c0,0.5,0,1.2,0,2s0,1.5,0,2c-0.2,4.8-2.9,7.1-8.1,7.1h-7C166.9,18.7,166.7,18.6,166.6,18.5z M173.9,14.8
		c1.1,0,1.9-0.3,2.4-0.8s0.8-1.4,0.8-2.5c0-0.5,0.1-1.2,0.1-2s0-1.4-0.1-1.9c0-1.1-0.3-1.9-0.9-2.5c-0.6-0.5-1.4-0.8-2.5-0.8h-2.5
		v10.4h2.7V14.8z"/>
	<path d="M187.7,18.2c-1.2-0.5-2.1-1.1-2.7-1.9c-0.6-0.8-0.9-1.7-1-2.6c0-0.2,0.1-0.3,0.2-0.4c0.1-0.1,0.2-0.2,0.4-0.2h3.5
		c0.2,0,0.4,0,0.5,0.1s0.3,0.2,0.4,0.4c0.2,0.4,0.6,0.8,1.1,1c0.5,0.3,1.1,0.4,1.9,0.4c0.9,0,1.7-0.1,2.2-0.4
		c0.5-0.3,0.8-0.7,0.8-1.2c0-0.4-0.1-0.7-0.4-0.9c-0.3-0.2-0.7-0.4-1.3-0.6c-0.6-0.2-1.4-0.4-2.5-0.6c-2.1-0.4-3.7-1-4.7-1.9
		c-1-0.8-1.6-2.1-1.6-3.6c0-1.1,0.3-2,0.9-2.9c0.6-0.8,1.4-1.5,2.6-2s2.4-0.7,3.8-0.7c1.5,0,2.9,0.3,4,0.8s2,1.2,2.6,2
		s0.9,1.6,0.9,2.3c0,0.2-0.1,0.3-0.2,0.4c-0.1,0.1-0.2,0.2-0.4,0.2h-3.6c-0.4,0-0.7-0.2-0.9-0.5c-0.1-0.4-0.4-0.7-0.8-0.9
		c-0.4-0.3-1-0.4-1.6-0.4c-0.7,0-1.3,0.1-1.7,0.4s-0.6,0.6-0.6,1.1s0.3,0.9,0.8,1.2s1.5,0.6,2.9,0.9c1.6,0.3,2.9,0.7,3.9,1.1
		s1.7,1,2.1,1.7c0.5,0.7,0.7,1.6,0.7,2.7c0,1.2-0.3,2.2-1,3.1c-0.7,0.9-1.6,1.5-2.8,2S193.5,19,192,19
		C190.3,18.9,188.9,18.7,187.7,18.2z"/>
</g>
<path class="st0" d="M0.2,18.5C0.1,18.4,0,18.2,0,18V1.1c0-0.2,0.1-0.4,0.2-0.5s0.3-0.2,0.5-0.2h3.5c0.2,0,0.3,0.1,0.5,0.2
	c0.1,0.1,0.2,0.3,0.2,0.5v5.7L9.4,1c0.2-0.3,0.5-0.5,1-0.5h4c0.1,0,0.3,0.1,0.4,0.2C14.9,0.7,15,0.9,15,1s0,0.2-0.1,0.3L8.8,9.2
	l6.6,8.6c0.1,0.1,0.1,0.2,0.1,0.3s-0.1,0.3-0.2,0.4c-0.1,0.1-0.2,0.2-0.4,0.2h-4.1c-0.3,0-0.5-0.1-0.7-0.2s-0.3-0.2-0.4-0.4
	l-4.9-6.4V18c0,0.2-0.1,0.3-0.2,0.5c-0.1,0.1-0.3,0.2-0.5,0.2H0.7C0.5,18.7,0.3,18.6,0.2,18.5z"/>
<path class="st0" d="M17.6,18.5c-0.1-0.1-0.2-0.3-0.2-0.5V1.1c0-0.2,0.1-0.4,0.2-0.5s0.3-0.2,0.5-0.2H21c0.4,0,0.7,0.2,0.9,0.5
	l6.1,9.7V1.1c0-0.2,0.1-0.4,0.2-0.5s0.3-0.2,0.5-0.2H32c0.2,0,0.3,0.1,0.5,0.2c0.1,0.1,0.2,0.3,0.2,0.5V18c0,0.2-0.1,0.3-0.2,0.5
	c-0.1,0.1-0.3,0.2-0.5,0.2h-3c-0.4,0-0.7-0.2-0.9-0.5L22,8.9V18c0,0.2-0.1,0.3-0.2,0.5s-0.3,0.2-0.5,0.2H18
	C17.9,18.7,17.7,18.6,17.6,18.5z"/>
<g class="st1">
	<path class="st0" d="M49,17.1c-1.4-1.2-2.2-3-2.3-5.3c0-0.5,0-1.2,0-2.2s0-1.8,0-2.3C46.8,5,47.5,3.2,49,2c1.4-1.2,3.4-1.9,5.8-1.9
		c2.4,0,4.3,0.6,5.8,1.9c1.4,1.2,2.2,3,2.3,5.3c0,1,0.1,1.8,0.1,2.3s0,1.3-0.1,2.2c-0.1,2.3-0.8,4.1-2.3,5.3
		c-1.4,1.2-3.4,1.8-5.8,1.8S50.4,18.3,49,17.1z M57,14.2c0.5-0.5,0.8-1.4,0.9-2.5c0-1,0.1-1.7,0.1-2.2s0-1.1-0.1-2.1
		c0-1.1-0.3-2-0.9-2.5c-0.5-0.5-1.3-0.8-2.2-0.8s-1.6,0.3-2.2,0.8c-0.5,0.5-0.8,1.4-0.9,2.5c0,0.5,0,1.2,0,2.1s0,1.7,0,2.2
		c0,1.1,0.3,2,0.9,2.5c0.5,0.5,1.3,0.8,2.2,0.8C55.8,15,56.5,14.8,57,14.2z"/>
	<path class="st0" d="M66.6,18.5c-0.1-0.1-0.2-0.3-0.2-0.5V1.1c0-0.2,0.1-0.4,0.2-0.5s0.3-0.2,0.5-0.2h6.8c2.6,0,4.6,0.6,6,1.8
		s2.2,3,2.2,5.3c0,0.5,0,1.2,0,2s0,1.5,0,2c-0.2,4.8-2.9,7.1-8.1,7.1h-7C66.8,18.7,66.7,18.6,66.6,18.5z M73.9,14.8
		c1.1,0,1.9-0.3,2.4-0.8s0.8-1.4,0.8-2.5c0-0.5,0.1-1.2,0.1-2s0-1.4-0.1-1.9c0-1.1-0.3-1.9-0.9-2.5c-0.6-0.5-1.4-0.8-2.5-0.8h-2.5
		v10.4h2.7V14.8z"/>
	<path class="st0" d="M87.7,18.2c-1.2-0.5-2.1-1.1-2.7-1.9c-0.6-0.8-0.9-1.7-1-2.6c0-0.2,0.1-0.3,0.2-0.4c0.1-0.1,0.2-0.2,0.4-0.2
		h3.5c0.2,0,0.4,0,0.5,0.1s0.3,0.2,0.4,0.4c0.2,0.4,0.6,0.8,1.1,1c0.5,0.3,1.1,0.4,1.9,0.4c0.9,0,1.7-0.1,2.2-0.4
		c0.5-0.3,0.8-0.7,0.8-1.2c0-0.4-0.1-0.7-0.4-0.9s-0.7-0.4-1.3-0.6s-1.4-0.4-2.5-0.6c-2.1-0.4-3.7-1-4.7-1.9c-1-0.8-1.6-2.1-1.6-3.6
		c0-1.1,0.3-2,0.9-2.9C86,2,86.9,1.4,88,0.9s2.4-0.7,3.8-0.7c1.5,0,2.9,0.3,4,0.8s2,1.2,2.6,2s0.9,1.6,0.9,2.3
		c0,0.2-0.1,0.3-0.2,0.4s-0.2,0.2-0.4,0.2h-3.6c-0.4,0-0.7-0.2-0.9-0.5c-0.1-0.4-0.4-0.7-0.8-0.9c-0.4-0.3-1-0.4-1.6-0.4
		c-0.7,0-1.3,0.1-1.7,0.4c-0.4,0.3-0.6,0.6-0.6,1.1s0.3,0.9,0.8,1.2s1.5,0.6,2.9,0.9c1.6,0.3,2.9,0.7,3.9,1.1s1.7,1,2.1,1.7
		c0.5,0.7,0.7,1.6,0.7,2.7c0,1.2-0.3,2.2-1,3.1s-1.6,1.5-2.8,2S93.5,19,92,19C90.3,18.9,88.9,18.7,87.7,18.2z"/>
</g>
</svg>
